<svg xmlns="http://www.w3.org/2000/svg" viewBox="0 0 71 32"><defs><style>.cls-1{fill:#fff;}</style></defs><g id="Calque_2" data-name="Calque 2"><rect width="71" height="32"/></g><g id="Calque_1" data-name="Calque 1"><path class="cls-1" d="M13,13.14a7.48,7.48,0,0,1-5.32,2.22,7.43,7.43,0,0,1-5.43-2.24A7.4,7.4,0,0,1,0,7.69,7.44,7.44,0,0,1,2.25,2.25,7.4,7.4,0,0,1,7.68,0a8.32,8.32,0,0,1,5.66,2.43L11.88,3.76A6.28,6.28,0,0,0,7.68,2a5.51,5.51,0,0,0-4,1.68A5.51,5.51,0,0,0,2,7.69a5.51,5.51,0,0,0,1.67,4,5.51,5.51,0,0,0,4,1.68,5.23,5.23,0,0,0,3.37-1.07V7.8H13Z"/><path class="cls-1" d="M24.31,6.21V5.53h2v9.68h-2V14A4.43,4.43,0,0,1,21,15.46a5.16,5.16,0,0,1-3.78-1.57,5.12,5.12,0,0,1-1.57-3.78,5.12,5.12,0,0,1,1.57-3.78A5.12,5.12,0,0,1,21,4.76,4.45,4.45,0,0,1,24.31,6.21Zm0,4.61V9.4a3.14,3.14,0,0,0-.9-1.66,3.36,3.36,0,0,0-4.74,0,3.2,3.2,0,0,0-1,2.37A3.36,3.36,0,0,0,21,13.45a3.25,3.25,0,0,0,2.37-1A3.14,3.14,0,0,0,24.31,10.82Z"/><path class="cls-1" d="M29.1.17h2V6.58A2.55,2.55,0,0,1,33.43,5a3.08,3.08,0,0,1,2.48,1.11,4.38,4.38,0,0,1,1,2.8V15.2h-2V9a2.2,2.2,0,0,0-.47-1.43,1.81,1.81,0,0,0-1.5-.6,2,2,0,0,0-1.88,1.3V15.2h-2Z"/><path class="cls-1" d="M41.94,7.47v7.74H40V7.47h-.86V5.52H40V3.79a3.13,3.13,0,0,1,.93-2.07A2.91,2.91,0,0,1,43,.89a6.18,6.18,0,0,1,1.77.41l-.65,1.84a4.18,4.18,0,0,0-1-.35,1.13,1.13,0,0,0-.76.33,1.06,1.06,0,0,0-.33.74V5.52h1.74v2Z"/><path class="cls-1" d="M48,18.45H45.89l2.58-5.4-3.6-7.52h2.19l2.45,5.29L52,5.53h2.18Z"/><path class="cls-1" d="M29,22.08h1.95V23a2.12,2.12,0,0,1,2.17-1.42,1.63,1.63,0,0,1,1.79,1.62,2.3,2.3,0,0,1,2.54-1.62c1.37,0,2.05.83,2.05,2.49v7.7h-2V24.94c0-1-.39-1.42-1.16-1.42a1.18,1.18,0,0,0-.83.33,4.2,4.2,0,0,0-.34,2.28v5.62h-2V24.94c0-1-.39-1.42-1.17-1.42a1.18,1.18,0,0,0-.83.33,2.56,2.56,0,0,0-.33,1.55v6.35H29Z"/><path class="cls-1" d="M45.31,29.56a2.69,2.69,0,0,0,1.77.43,3.27,3.27,0,0,0,2.38-1c.08-.09.25-.28.5-.58l1.95.7a12.21,12.21,0,0,1-1,1.3,5.36,5.36,0,0,1-9.14-3.79,5.36,5.36,0,0,1,8.68-4.2,6,6,0,0,1,.46.42c.07.06.25.26.54.59l-1,1Zm3.25-6a2.86,2.86,0,0,0-1.48-.25,3.36,3.36,0,0,0-3.35,3.35A2.78,2.78,0,0,0,44,28.12Z"/><path class="cls-1" d="M57.18,29.56A2.69,2.69,0,0,0,59,30a3.25,3.25,0,0,0,2.38-1c.08-.09.25-.28.5-.58l2,.7a12.21,12.21,0,0,1-1,1.3,5.36,5.36,0,0,1-9.14-3.79,5.36,5.36,0,0,1,8.68-4.2,6,6,0,0,1,.46.42c.07.06.25.26.54.59l-1,1Zm3.25-6A2.86,2.86,0,0,0,59,23.29a3.35,3.35,0,0,0-3.34,3.35,2.81,2.81,0,0,0,.25,1.48Z"/><path class="cls-1" d="M67.21,22.08V18.45h2v3.63H70.9V24H69.16v7.73h-2V24H65.47V22.08Z"/></g></svg>