<svg id="Calque_1" data-name="Calque 1" xmlns="http://www.w3.org/2000/svg" viewBox="0 0 53.89 31.97"><defs><style>.cls-1{fill:#102d45;}.cls-2{fill:#fff;}</style></defs><path class="cls-1" d="M16.43,15.5A7.44,7.44,0,0,1,11,13.25,7.42,7.42,0,0,1,8.75,7.82,7.43,7.43,0,0,1,11,2.4,7.41,7.41,0,0,1,16.43.14a8.34,8.34,0,0,1,5.65,2.43l.1.09L20.56,4.13l-.08-.07a6.06,6.06,0,0,0-4.05-1.73,5.32,5.32,0,0,0-3.88,1.61,5.3,5.3,0,0,0-1.61,3.88,5.5,5.5,0,0,0,5.49,5.51,5.08,5.08,0,0,0,3.19-1V7.81h2.16v5.38A7.37,7.37,0,0,1,16.43,15.5Z" transform="translate(-8.63 -0.02)"/><path class="cls-2" d="M16.43.27A8.13,8.13,0,0,1,22,2.66L20.56,4a6.18,6.18,0,0,0-4.13-1.75,5.62,5.62,0,0,0-5.62,5.61,5.44,5.44,0,0,0,1.65,4,5.45,5.45,0,0,0,4,1.64,5.11,5.11,0,0,0,3.31-1V7.93h1.92v5.26a7.34,7.34,0,0,1-5.23,2.18,7.24,7.24,0,0,1-5.34-2.21A7.24,7.24,0,0,1,8.88,7.82a7.27,7.27,0,0,1,2.21-5.34A7.28,7.28,0,0,1,16.43.27m0-.25a7.54,7.54,0,0,0-5.52,2.29A7.57,7.57,0,0,0,8.63,7.82a7.56,7.56,0,0,0,2.28,5.52,7.71,7.71,0,0,0,10.92,0l.08-.07V7.68H19.49v4.59a4.91,4.91,0,0,1-3.06.93,5.2,5.2,0,0,1-3.79-1.57,5.18,5.18,0,0,1-1.58-3.81A5.17,5.17,0,0,1,12.64,4a5.2,5.2,0,0,1,3.79-1.57,6,6,0,0,1,4,1.69l.17.15.17-.15,1.43-1.31.2-.18-.2-.18A8.41,8.41,0,0,0,16.43,0Z" transform="translate(-8.63 -0.02)"/><path class="cls-1" d="M29.57,15.59A5.18,5.18,0,0,1,25.76,14a5.17,5.17,0,0,1-1.58-3.8,5.38,5.38,0,0,1,5.39-5.38,4.45,4.45,0,0,1,3.09,1.25v-.5h2.17v9.77H32.66v-1A4.42,4.42,0,0,1,29.57,15.59Zm0-8.55A3.06,3.06,0,0,0,27.32,8a3,3,0,0,0-.93,2.24,3,3,0,0,0,.93,2.23,3.06,3.06,0,0,0,2.25.93,3.11,3.11,0,0,0,2.24-.92,3,3,0,0,0,.85-1.56V9.51A2.94,2.94,0,0,0,31.81,8,3.07,3.07,0,0,0,29.57,7Z" transform="translate(-8.63 -0.02)"/><path class="cls-2" d="M29.57,5a4.41,4.41,0,0,1,3.22,1.42V5.71h1.92v9.51H32.79V14a4.34,4.34,0,0,1-3.22,1.43,5.24,5.24,0,0,1-5.27-5.25,5.07,5.07,0,0,1,1.54-3.72A5.07,5.07,0,0,1,29.57,5m0,8.55a3.29,3.29,0,0,0,3.22-2.59V9.51a3.3,3.3,0,1,0-5.56,3,3.21,3.21,0,0,0,2.34,1m0-8.8a5.33,5.33,0,0,0-3.9,1.61,5.34,5.34,0,0,0-1.62,3.9,5.33,5.33,0,0,0,1.62,3.89,5.33,5.33,0,0,0,3.9,1.61,4.54,4.54,0,0,0,3-1.1v.86H35v-10H32.54V5.8a4.54,4.54,0,0,0-3-1.1Zm0,8.55a3.07,3.07,0,0,1-3.06-3,3.05,3.05,0,0,1,5.21-2.15,2.85,2.85,0,0,1,.82,1.49v1.36a3.07,3.07,0,0,1-3,2.34Z" transform="translate(-8.63 -0.02)"/><path class="cls-1" d="M43.08,15.34V9.11a2,2,0,0,0-.44-1.33,1.63,1.63,0,0,0-1.37-.54,1.89,1.89,0,0,0-1.74,1.2v6.9H37.37V.31h2.17v6a2.55,2.55,0,0,1,2.21-1.21,3.13,3.13,0,0,1,2.53,1.14,4.43,4.43,0,0,1,1,2.82v6.31Z" transform="translate(-8.63 -0.02)"/><path class="cls-2" d="M39.42.43v6.3a2.53,2.53,0,0,1,2.33-1.54,3,3,0,0,1,2.43,1.1A4.19,4.19,0,0,1,45.12,9v6.18H43.21V9.11a2.2,2.2,0,0,0-.47-1.41,1.77,1.77,0,0,0-1.47-.59,2,2,0,0,0-1.85,1.28v6.82H37.49V.43h1.93m.25-.25H37.24V15.46h2.43v-7a1.76,1.76,0,0,1,1.6-1.09,1.52,1.52,0,0,1,1.28.5A1.94,1.94,0,0,1,43,9.11v6.35h2.41V9a4.52,4.52,0,0,0-1-2.9,3.26,3.26,0,0,0-2.63-1.19,2.59,2.59,0,0,0-2.08,1V.18Z" transform="translate(-8.63 -0.02)"/><path class="cls-1" d="M48.07,15.35V7.74h-.85V5.57h.85V4A3.16,3.16,0,0,1,49,1.87,3,3,0,0,1,51.12,1a6.13,6.13,0,0,1,1.78.4l.12,0-.73,2.06-.12,0a3.53,3.53,0,0,0-1-.33,1,1,0,0,0-.67.29,1,1,0,0,0-.28.64v1.5H52V7.74H50.24v7.61Z" transform="translate(-8.63 -0.02)"/><path class="cls-2" d="M51.12,1.14a6.29,6.29,0,0,1,1.74.4l-.64,1.81a3.94,3.94,0,0,0-1-.34,1.14,1.14,0,0,0-.75.32,1.09,1.09,0,0,0-.32.73V5.7h1.71V7.61H50.12v7.61H48.19V7.61h-.85V5.7h.85V4a3.05,3.05,0,0,1,.91-2,2.88,2.88,0,0,1,2-.82m0-.25a3.09,3.09,0,0,0-2.19.89,3.3,3.3,0,0,0-1,2.2V5.45h-.85V7.86h.85v7.61h2.43V7.86h1.71V5.45H50.37V4.06a.8.8,0,0,1,.25-.55.86.86,0,0,1,.57-.25,3.85,3.85,0,0,1,.93.32l.25.11.08-.25.64-1.81.09-.24-.24-.08A6.19,6.19,0,0,0,51.12.89Z" transform="translate(-8.63 -0.02)"/><polygon class="cls-1" points="45.18 18.52 47.77 13.08 44.17 5.57 46.6 5.57 48.94 10.6 51.27 5.57 53.69 5.57 47.48 18.52 45.18 18.52"/><path class="cls-2" d="M62.12,5.71,56,18.41H54l2.54-5.31L53,5.71h2.16l2.41,5.2L60,5.71h2.14m.4-.25h-2.7l-.07.14-2.19,4.72L55.38,5.6l-.07-.14H52.6l.17.36,3.49,7.28-2.48,5.2-.17.36h2.58l.06-.14,6.1-12.7.17-.36Z" transform="translate(-8.63 -0.02)"/><path class="cls-1" d="M20.45,31.61V24.79c0-.87-.32-1.27-1-1.27a1,1,0,0,0-.72.29c-.12.11-.31.54-.31,2.15v5.65H16.24V24.79c0-.87-.33-1.27-1-1.27a1,1,0,0,0-.73.29c-.12.12-.27.46-.3,1.43v6.37H12V21.85H14.2v.49a2.25,2.25,0,0,1,2-1A1.67,1.67,0,0,1,18,22.61a2.47,2.47,0,0,1,2.46-1.27c1.42,0,2.14.87,2.14,2.58v7.69Z" transform="translate(-8.63 -0.02)"/><path class="cls-2" d="M20.48,21.47c1.34,0,2,.82,2,2.45v7.56H20.57V24.79c0-.93-.38-1.4-1.14-1.4a1.13,1.13,0,0,0-.81.33c-.23.22-.34,1-.34,2.24v5.52H16.36V24.79c0-.93-.38-1.4-1.14-1.4a1.14,1.14,0,0,0-.82.33,2.55,2.55,0,0,0-.33,1.52v6.24H12.16V22h1.92v.88a2.09,2.09,0,0,1,2.14-1.39A1.6,1.6,0,0,1,18,23.06a2.26,2.26,0,0,1,2.5-1.59m0-.25a2.66,2.66,0,0,0-2.43,1.08,1.82,1.82,0,0,0-1.83-1.08,2.41,2.41,0,0,0-1.89.75v-.24H11.91v10h2.42V25.24c0-1,.19-1.27.26-1.34a.9.9,0,0,1,.64-.26c.41,0,.89.13.89,1.15v6.94h2.42V26c0-1.67.2-2,.26-2.06a.93.93,0,0,1,.64-.26c.42,0,.89.13.89,1.15v6.94h2.43V23.92c0-2.23-1.24-2.7-2.27-2.7Z" transform="translate(-8.63 -0.02)"/><path class="cls-1" d="M30,31.86a5.39,5.39,0,0,1-3.81-9.2,5.42,5.42,0,0,1,7.16-.43,4.6,4.6,0,0,1,.46.43c.07.06.24.25.54.58l.07.09-1,1.05-4.94,4.94a2.92,2.92,0,0,0,1.56.31,3.11,3.11,0,0,0,2.25-.92l.48-.57.06-.06,2.15.76-.1.14a11.27,11.27,0,0,1-1,1.3A5.21,5.21,0,0,1,30,31.86Zm0-8.57a3.1,3.1,0,0,0-2.24.93,3.06,3.06,0,0,0-.93,2.25A3.48,3.48,0,0,0,27,27.71l4.27-4.26A3.47,3.47,0,0,0,30,23.29Z" transform="translate(-8.63 -0.02)"/><path class="cls-2" d="M30,21.2a5.1,5.1,0,0,1,3.27,1.13,5.92,5.92,0,0,1,.45.41l.53.59-1,1-5,5a2.7,2.7,0,0,0,1.75.43,3.22,3.22,0,0,0,2.34-1l.49-.58,1.91.69a13.11,13.11,0,0,1-1,1.28,5.27,5.27,0,0,1-9-3.72A5.27,5.27,0,0,1,30,21.2m-3,6.72,4.5-4.5A2.68,2.68,0,0,0,30,23.17a3.28,3.28,0,0,0-3.29,3.3,2.83,2.83,0,0,0,.24,1.45m3-7a5.52,5.52,0,0,0-3.9,9.42,5.53,5.53,0,0,0,7.8,0,12,12,0,0,0,1-1.32l.2-.27-.31-.11L32.9,28l-.16-.06-.11.13c-.25.29-.41.48-.49.56a2.88,2.88,0,0,1-2.15.89,3.36,3.36,0,0,1-1.36-.22l4.83-4.82,1-1,.16-.16-.15-.18-.54-.59a4.69,4.69,0,0,0-.47-.43A5.32,5.32,0,0,0,30,21Zm-3,6.53a4.45,4.45,0,0,1-.08-1,3,3,0,0,1,3-3,5.14,5.14,0,0,1,1,.08l-4,4Z" transform="translate(-8.63 -0.02)"/><path class="cls-1" d="M41.66,31.86a5.39,5.39,0,0,1-3.81-9.2A5.42,5.42,0,0,1,45,22.23a4.69,4.69,0,0,1,.47.43l.53.58.08.09L45,24.38,40.1,29.32a2.94,2.94,0,0,0,1.56.31,3.11,3.11,0,0,0,2.25-.92l.48-.57.06-.06,2.15.76-.09.14a14.09,14.09,0,0,1-1,1.3A5.23,5.23,0,0,1,41.66,31.86Zm0-8.57a3.1,3.1,0,0,0-2.24.93,3.06,3.06,0,0,0-.93,2.25,3.4,3.4,0,0,0,.16,1.24l4.26-4.26A3.43,3.43,0,0,0,41.66,23.29Z" transform="translate(-8.63 -0.02)"/><path class="cls-2" d="M41.66,21.2a5.06,5.06,0,0,1,3.27,1.13c.16.13.31.27.46.41l.52.59-1,1-5,5a2.72,2.72,0,0,0,1.75.43,3.22,3.22,0,0,0,2.34-1l.49-.58,1.91.69a12,12,0,0,1-1,1.28,5.27,5.27,0,0,1-7.45-7.45,5.11,5.11,0,0,1,3.72-1.54m-3,6.72,4.49-4.5a2.66,2.66,0,0,0-1.45-.25,3.28,3.28,0,0,0-3.29,3.3,2.7,2.7,0,0,0,.25,1.45m3-7a5.53,5.53,0,0,0-5.51,5.52,5.52,5.52,0,0,0,9.41,3.9,11.74,11.74,0,0,0,1-1.32l.19-.27-.31-.11L44.57,28l-.16-.06-.11.13c-.24.29-.4.48-.48.56a2.92,2.92,0,0,1-2.16.89,3.31,3.31,0,0,1-1.35-.22l4.82-4.82,1-1,.17-.16-.16-.18c-.29-.33-.47-.53-.54-.59a4.69,4.69,0,0,0-.47-.43A5.32,5.32,0,0,0,41.66,21Zm-3,6.53a5.14,5.14,0,0,1-.08-1,3,3,0,0,1,3-3,5.06,5.06,0,0,1,1,.08l-4,4Z" transform="translate(-8.63 -0.02)"/><polygon class="cls-1" points="41.03 31.59 41.03 24 39.32 24 39.32 21.84 41.03 21.84 41.03 18.27 43.19 18.27 43.19 21.84 44.9 21.84 44.9 24 43.19 24 43.19 31.59 41.03 31.59"/><path class="cls-2" d="M51.69,18.41V22h1.72v1.91H51.69v7.59H49.78V23.89H48.07V22h1.71V18.41h1.91m.25-.25H49.53v3.57H47.82v2.41h1.71v7.59h2.41V24.14h1.72V21.73H51.94V18.16Z" transform="translate(-8.63 -0.02)"/></svg>